<svg xmlns="http://www.w3.org/2000/svg" viewBox="0 0 16 16"><path d="M1.66.6 15.4 14.35q.21.21.21.53 0 .3-.21.52-.22.22-.54.22-.3 0-.52-.21L.6 1.65q-.22-.22-.22-.54Q.38.82.6.6.8.37 1.13.37q.3 0 .53.22M.72 14.22l4.5-4.5q.22-.22.53-.22t.53.22.22.53-.22.53l-4.5 4.5q-.22.22-.53.22t-.53-.22-.22-.53.22-.53"/><path d="m5.42 6.15-1.75.41q-.15.04-.19.18t.07.24l5.47 5.47q.1.1.24.07.14-.04.18-.18l.35-1.51q.08-.3.34-.47t.57-.09.46.34q.17.26.1.56l-.37 1.51q-.23 1-1.22 1.28t-1.72-.44L2.48 8.05q-.72-.73-.44-1.72t1.28-1.22l1.76-.42q.3-.08.56.09t.34.46-.1.57q-.15.26-.46.34m2.05-2.68q.16-.16.25-.35l.75-1.63q.38-.83 1.28-1 .9-.15 1.54.5l3.73 3.72q.64.64.48 1.54t-.99 1.28l-1.62.75q-.2.1-.36.25-.22.22-.53.22t-.53-.22-.22-.53.22-.53q.34-.35.79-.55l1.62-.75q.12-.06.15-.18.02-.13-.07-.22l-3.73-3.73q-.09-.09-.22-.07-.12.03-.18.15l-.75 1.62q-.2.45-.55.79-.22.22-.53.22t-.53-.22T7.25 4t.22-.53"/></svg>